<svg width="318" height="556" viewBox="0 0 318 556" fill="none" xmlns="http://www.w3.org/2000/svg">
<g filter="url(#filter0_d)">
<ellipse cx="159" cy="539.651" rx="151" ry="4.34762" fill="#C4C4C4" fill-opacity="0.01"/>
</g>
<g filter="url(#filter1_d)">
<path d="M67.3622 541.515H250.638C256.069 541.515 261.247 540.435 265.972 538.477C265.972 538.477 202.409 506.423 159.31 506.734C116.212 507.044 52.0288 538.477 52.0288 538.477C56.7531 540.435 61.9317 541.515 67.3622 541.515Z" fill="#C4C4C4" fill-opacity="0.01"/>
</g>
<g filter="url(#filter2_d)">
<path d="M27.2246 48.1998C27.2246 25.9975 45.1951 7.99902 67.3628 7.99902H250.639C272.806 7.99902 290.777 25.9975 290.777 48.1998V501.314C290.777 523.516 272.806 541.515 250.639 541.515H67.3628C45.1951 541.515 27.2246 523.516 27.2246 501.314V48.1998Z" fill="#F9FAFA"/>
</g>
<g filter="url(#filter3_i)">
<path d="M27.2246 48.1998C27.2246 25.9975 45.1951 7.99902 67.3628 7.99902H250.639C272.806 7.99902 290.777 25.9975 290.777 48.1998V501.314C290.777 523.516 272.806 541.515 250.639 541.515H67.3628C45.1951 541.515 27.2246 523.516 27.2246 501.314V48.1998Z" fill="#F9FAFA"/>
</g>
<path d="M66.1373 526.72C54.5523 526.351 45.0531 518.064 43.0721 506.637M66.1373 526.72L66.1267 527.031C66.1269 527.031 66.1272 527.031 66.1274 527.031C67.8144 527.088 69.5055 527.083 71.189 527.078C71.6687 527.076 72.1478 527.075 72.626 527.075H250.031H250.045C251.657 527.075 253.304 527.075 254.937 526.775C264.201 525.094 270.6 519.872 274.102 511.132L273.813 511.016L274.102 511.132C275.412 507.858 275.584 504.445 275.584 501.033C275.574 365.781 275.57 230.531 275.57 95.2849C275.559 78.8716 275.558 62.4571 275.568 46.0412C275.574 43.9948 275.285 41.9583 274.71 39.9943L274.71 39.9941C271.642 29.539 262.718 22.4911 251.814 22.2372L251.807 22.5482L251.814 22.2372C245.734 22.0965 239.649 22.1302 233.57 22.1638C231.488 22.1754 229.407 22.1869 227.326 22.1914C226.265 22.1937 225.382 22.5126 224.744 23.1245C224.107 23.7353 223.746 24.6072 223.67 25.6559C223.635 26.1291 223.621 26.6022 223.609 27.0694C223.607 27.1349 223.606 27.2004 223.604 27.2657C223.594 27.6676 223.584 28.0647 223.563 28.461L223.563 28.4624C223.281 34.3817 219.016 39.355 213.208 40.5392L213.206 40.5396C212.011 40.79 210.806 40.7898 209.562 40.7895L209.454 40.7895C184.679 40.791 159.904 40.791 135.13 40.7895C132.423 40.7891 129.717 40.7928 127.012 40.7966C120.329 40.8058 113.647 40.815 106.966 40.7615C100.934 40.714 95.8864 36.5178 94.5863 30.641C94.5863 30.641 94.5863 30.641 94.5863 30.641L43.0721 506.637M66.1373 526.72C67.8182 526.777 69.5018 526.772 71.1846 526.767C71.6652 526.765 72.1457 526.764 72.626 526.764H250.031C251.652 526.764 253.276 526.764 254.881 526.469L66.1373 526.72ZM43.0721 506.637C42.7844 504.97 42.7564 503.304 42.7564 501.638M43.0721 506.637L42.7564 501.638M42.7564 501.638C42.752 450.767 42.751 399.901 42.7535 349.04M42.7564 501.638L42.7535 349.04M42.7535 349.04V275.045V349.04ZM42.4394 274.734C42.4394 274.749 42.4405 274.763 42.4424 274.777L93.0598 23.5597C92.2751 22.6735 91.2529 22.4803 90.123 22.4833L90.1228 22.1722C90.1227 22.1722 90.1226 22.1722 90.1225 22.1722C82.5046 22.1776 74.8857 22.1796 67.2658 22.1781L67.2654 22.1781C65.3262 22.1801 63.3926 22.3865 61.4967 22.794C50.9188 25.0455 42.7839 34.6379 42.5162 45.4663L42.5162 45.4664C42.3924 50.4928 42.4108 55.5249 42.4292 60.5512C42.4358 62.3569 42.4424 64.1618 42.4424 65.9655C42.4404 135.555 42.4394 205.144 42.4394 274.734ZM61.5617 23.0982C63.4364 22.6953 65.3483 22.4912 67.2657 22.4892L42.7505 274.423C42.7505 204.937 42.7515 135.451 42.7535 65.9655C42.7535 64.1593 42.7469 62.3528 42.7403 60.5462C42.7219 55.5213 42.7035 50.4957 42.8272 45.474C43.0912 34.7926 51.1214 25.3203 61.5617 23.0982Z" stroke="#E1E1E1" stroke-width="0.622131" stroke-linejoin="round"/>
<path opacity="0.4" fill-rule="evenodd" clip-rule="evenodd" d="M140.614 28.9353C140.614 27.9193 141.451 27.0949 142.483 27.0939L165.426 27.0721C166.458 27.0711 167.295 27.8939 167.295 28.9099L167.295 29.5021C167.295 30.5181 166.459 31.3425 165.426 31.3435L142.484 31.3654C141.451 31.3664 140.614 30.5436 140.614 29.5276L140.614 28.9353Z" fill="#C8C8C8"/>
<path opacity="0.546196" fill-rule="evenodd" clip-rule="evenodd" d="M173.5 29.2162C173.5 28.0357 174.472 27.0713 175.672 27.0702C176.871 27.069 177.844 28.0316 177.844 29.212C177.844 30.3924 176.871 31.3568 175.672 31.358C174.472 31.3591 173.5 30.3966 173.5 29.2162Z" fill="#C8C8C8"/>
<defs>
<filter id="filter0_d" x="0.534423" y="527.838" width="316.931" height="23.6264" filterUnits="userSpaceOnUse" color-interpolation-filters="sRGB">
<feFlood flood-opacity="0" result="BackgroundImageFix"/>
<feColorMatrix in="SourceAlpha" type="matrix" values="0 0 0 0 0 0 0 0 0 0 0 0 0 0 0 0 0 0 127 0" result="hardAlpha"/>
<feOffset/>
<feGaussianBlur stdDeviation="3.73279"/>
<feColorMatrix type="matrix" values="0 0 0 0 0 0 0 0 0 0 0 0 0 0 0 0 0 0 0.08 0"/>
<feBlend mode="normal" in2="BackgroundImageFix" result="effect1_dropShadow"/>
<feBlend mode="normal" in="SourceGraphic" in2="effect1_dropShadow" result="shape"/>
</filter>
<filter id="filter1_d" x="46.4296" y="501.132" width="225.141" height="45.9817" filterUnits="userSpaceOnUse" color-interpolation-filters="sRGB">
<feFlood flood-opacity="0" result="BackgroundImageFix"/>
<feColorMatrix in="SourceAlpha" type="matrix" values="0 0 0 0 0 0 0 0 0 0 0 0 0 0 0 0 0 0 127 0" result="hardAlpha"/>
<feOffset/>
<feGaussianBlur stdDeviation="2.79959"/>
<feColorMatrix type="matrix" values="0 0 0 0 0 0 0 0 0 0 0 0 0 0 0 0 0 0 0.33 0"/>
<feBlend mode="normal" in2="BackgroundImageFix" result="effect1_dropShadow"/>
<feBlend mode="normal" in="SourceGraphic" in2="effect1_dropShadow" result="shape"/>
</filter>
<filter id="filter2_d" x="16.3087" y="0.523545" width="285.384" height="555.347" filterUnits="userSpaceOnUse" color-interpolation-filters="sRGB">
<feFlood flood-opacity="0" result="BackgroundImageFix"/>
<feColorMatrix in="SourceAlpha" type="matrix" values="0 0 0 0 0 0 0 0 0 0 0 0 0 0 0 0 0 0 127 0" result="hardAlpha"/>
<feOffset dy="3.44039"/>
<feGaussianBlur stdDeviation="5.45793"/>
<feColorMatrix type="matrix" values="0 0 0 0 0 0 0 0 0 0 0 0 0 0 0 0 0 0 0.03 0"/>
<feBlend mode="normal" in2="BackgroundImageFix" result="effect1_dropShadow"/>
<feBlend mode="normal" in="SourceGraphic" in2="effect1_dropShadow" result="shape"/>
</filter>
<filter id="filter3_i" x="27.2246" y="4.72426" width="263.552" height="536.79" filterUnits="userSpaceOnUse" color-interpolation-filters="sRGB">
<feFlood flood-opacity="0" result="BackgroundImageFix"/>
<feBlend mode="normal" in="SourceGraphic" in2="BackgroundImageFix" result="shape"/>
<feColorMatrix in="SourceAlpha" type="matrix" values="0 0 0 0 0 0 0 0 0 0 0 0 0 0 0 0 0 0 127 0" result="hardAlpha"/>
<feOffset dy="-3.27476"/>
<feGaussianBlur stdDeviation="5.50296"/>
<feComposite in2="hardAlpha" operator="arithmetic" k2="-1" k3="1"/>
<feColorMatrix type="matrix" values="0 0 0 0 0 0 0 0 0 0 0 0 0 0 0 0 0 0 0.12 0"/>
<feBlend mode="normal" in2="shape" result="effect1_innerShadow"/>
</filter>
</defs>
</svg>
